<svg viewBox="0 0 164 30" xmlns="http://www.w3.org/2000/svg">
  <g fill="none" fill-rule="evenodd">
    <path d="M34.012 8.017c0-3.707-3.194-4.006-3.194-4.006H41.14s-3.194.299-3.194 4.006v15.29c0 3.707 3.194 4.006 3.194 4.006H30.818s3.194-.299 3.194-4.007V8.017zm24.472 15.29c0 3.606 2.455 4.006 2.455 4.006h-8.576s2.455-.4 2.455-4.006v-9.038c0-1.72-.706-2.933-2.32-2.933-1.85 0-3.9 2.259-3.9 6.337v5.634c0 3.606 2.454 4.006 2.454 4.006h-8.575s2.455-.4 2.455-4.006v-7.69c0-3.37-2.455-4.786-2.455-4.786l6.12-.002v3.237c.942-2.224 2.455-3.64 5.179-3.64 2.993 0 4.708 1.618 4.708 5.157v7.724zM83.763 11.1c-2.523 0-3.128 2.09-3.297 6.708h6.087c0-4.584-.168-6.708-2.79-6.708zm6.691 7.314H80.433v.843c0 5.46.605 7.854 4.204 7.854 2.42 0 4.035-1.45 4.977-4.18h.639c-.673 2.832-2.96 4.854-5.784 4.854-4.54 0-8.038-3.303-8.038-8.663 0-4.92 3.128-8.696 7.332-8.696 3.833 0 6.691 3.169 6.691 7.988zm24.28 5.09h.57v.877c0 2.258-1.11 3.303-3.597 3.303-2.287 0-3.867-.944-3.867-3.303V11.505h-2.119l5.787-6.062-.003 5.387h3.666v.675h-3.666v12.74c0 1.82.572 2.428 1.681 2.428.942 0 1.548-.81 1.548-2.259v-.91zm17.54.106c0 3.37 2.456 3.703 2.456 3.703l-6.12.005v-3.241c-.942 2.225-2.455 3.64-5.247 3.64-2.96 0-4.64-1.55-4.64-5.157v-7.723c0-3.708-1.984-4.006-1.984-4.006l5.65-.002v13.046c0 1.719.74 2.932 2.42 2.932 1.816 0 3.8-2.224 3.8-6.303v-5.667c0-3.236-2.454-4.006-2.454-4.006l6.12-.002v12.78zm9.57-9.308c.875-2.157 2.355-3.876 4.54-3.876.841 0 1.446.169 2.085.506v5.19s-1.469-4.448-3.536-4.18c-1.106.145-3.088 2.192-3.088 5.933v5.431c0 3.64 2.959 4.007 2.959 4.007h-9.08s2.456-.4 2.456-4.007v-8.469c0-3.842-2.455-4.007-2.455-4.007l6.12-.001v3.473zm15.272-3.202c-2.523 0-3.128 2.09-3.296 6.708h6.087c0-4.584-.169-6.708-2.791-6.708zm.874 16.01c2.42 0 4.035-1.449 4.977-4.179h.639c-.673 2.832-2.96 4.854-5.784 4.854-4.54 0-8.037-3.303-8.037-8.663 0-4.92 3.127-8.696 7.33-8.696 3.834 0 6.692 3.169 6.692 7.988h-10.02v.843c0 5.46.604 7.854 4.203 7.854zM70.83 10.83h6.053s-1.966.62-3.602 4.795l-4.388 11.974h-.78l-4.445-11.274C61.986 12.078 59.8 10.83 59.8 10.83h8.104s-1.48.336-1.48 1.315c0 .986.337 1.753 1.01 3.64l2.488 7.045 1.917-5.494c.706-2.022 1.008-3.37 1.008-4.28 0-1.315-2.017-2.226-2.017-2.226zm24.51 2.663c0 3.91 8.979 3.506 8.979 8.899 0 3.236-2.925 5.325-6.12 5.325-2.085 0-3.968-.438-4.91-.842l-.336-5.022s2.817 5.292 5.38 5.292c1.615 0 3.397-.81 3.397-2.9 0-4.044-8.61-3.302-8.61-9.066 0-3.135 2.86-4.753 5.55-4.753 1.533 0 3.384.292 4.27.674l.337 4.483s-2.806-4.55-4.977-4.55c-1.345 0-2.96.741-2.96 2.46z" fill="#183059"/>
    <path d="M13.133 15.396L10.91 27.222 8.688 15.396h4.445zM5.49 12.444h10.843c-.252.678-.799 1.517-1.961 1.517H7.449c-1.155 0-1.704-.838-1.959-1.517zm-.28-1.435H3.778l.085.795c.13 1.205 1.002 3.45 3.366 3.586l2.356 12.552c-2.772-1.114-8.153-4.214-8.153-11.486V7.494H5.21v3.515zm9.384 4.381c2.36-.132 3.233-2.38 3.363-3.586l.086-.795H16.61V7.494h3.78v8.962c0 7.272-5.384 10.373-8.158 11.487l2.362-12.553zm-2.481-4.381c.207-2.852 1.961-4.867 3.066-5.866v5.866h-3.066zM9.311 5.947l1.6-2.944 1.599 2.945a9.684 9.684 0 0 0-1.599 3.424 9.68 9.68 0 0 0-1.6-3.425zm-2.669 5.062v-5.87c1.105.997 2.86 3.01 3.067 5.87H6.642zm9.968-4.95V2.406l-1.086.66c-.042.026-.974.593-2.026 1.7L10.91 0 8.322 4.764c-1.05-1.106-1.984-1.673-2.025-1.697L5.21 2.405V6.06H0v10.396C0 27.07 10.633 29.817 10.742 29.845l.168.04.17-.04c.108-.027 10.741-2.758 10.741-13.389V6.06h-5.21z" fill="#48A2CB"/>
  </g>
</svg>